<?xml version="1.0" encoding="UTF-8"?>
<svg width="967px" height="971px" viewBox="0 0 967 971" version="1.1" xmlns="http://www.w3.org/2000/svg" xmlns:xlink="http://www.w3.org/1999/xlink">
    <!-- Generator: Sketch 49.3 (51167) - http://www.bohemiancoding.com/sketch -->
    <title>All</title>
    <desc>Created with Sketch.</desc>
    <defs></defs>
    <g id="Infinite-Series" stroke="none" stroke-width="1" fill="none" fill-rule="evenodd" stroke-linecap="round" stroke-linejoin="round">
        <g id="Exist-Infinite-Copy" transform="translate(-652.000000, -296.000000)" stroke="#FFFFFF" stroke-width="10">
            <g id="All" transform="translate(657.000000, 301.000000)">
                <g id="Burst" transform="translate(37.433629, 0.109375)">
                    <path d="M158.919045,190.853333 C124.348648,150.109826 99.3700927,117.726346 83.9833788,93.7028938" id="Path-32"></path>
                    <path d="M199.050479,163.51162 C176.780737,126.638114 163.638429,102.522949 159.623557,91.1661261" id="Path-33"></path>
                    <path d="M242.589487,152.175903 C222.90735,106.72536 206.552327,66.4132883 193.524419,31.2396884" id="Path-35"></path>
                    <path d="M286.040707,144.273494 C279.864504,125.931036 273.6883,102.02513 267.512097,72.5557764" id="Path-2" transform="translate(276.776402, 108.414635) rotate(-2.000000) translate(-276.776402, -108.414635) "></path>
                    <path d="M368.796927,143.580844 C369.774089,122.254508 370.262669,96.1810919 370.262669,65.3605964" id="Path-2" transform="translate(369.529798, 104.470720) rotate(-4.000000) translate(-369.529798, -104.470720) "></path>
                    <path d="M400.853478,137.146428 C409.534211,84.9828044 416.817637,43.9092626 422.703756,13.9258031" id="Path-2" transform="translate(411.778617, 75.536116) rotate(-12.000000) translate(-411.778617, -75.536116) "></path>
                    <path d="M330.133759,144.891099 C323.068237,100.347345 318.211031,62.6251768 315.562141,31.7245944" id="Path-2"></path>
                    <path d="M441.312038,138.673576 C446.775969,120.997648 453.966105,99.9554904 462.882445,75.5471047" id="Path-2" transform="translate(452.097242, 107.110341) rotate(-17.000000) translate(-452.097242, -107.110341) "></path>
                    <path d="M473.275958,134.733345 C496.305639,77.5449208 515.995947,34.4905228 532.346884,5.5701508" id="Path-2" fill="#D8D8D8" transform="translate(502.811421, 70.151748) rotate(-12.000000) translate(-502.811421, -70.151748) "></path>
                    <path d="M559.275958,142.187528 C582.305639,84.9991041 601.995947,41.9447061 618.346884,13.0243341" id="Path-2" transform="translate(588.811421, 77.605931) rotate(-4.000000) translate(-588.811421, -77.605931) "></path>
                    <path d="M513.261863,134.910973 C519.981464,120.811823 534.863595,99.2846242 557.908256,70.3293758" id="Path-2" transform="translate(535.585060, 102.620174) rotate(-20.000000) translate(-535.585060, -102.620174) "></path>
                    <path d="M603.261863,143.880428 C609.981464,129.781279 624.863595,108.25408 647.908256,79.2988313" id="Path-2" transform="translate(625.585060, 111.589630) rotate(-9.000000) translate(-625.585060, -111.589630) "></path>
                    <path d="M647.079423,143.352198 C674.662606,110.090993 702.24579,78.5190375 729.828974,48.6363324" id="Path-2" transform="translate(688.454198, 95.994265) rotate(-9.000000) translate(-688.454198, -95.994265) "></path>
                    <path d="M692.045008,146.86546 C703.261592,135.748898 719.058237,122.03791 739.434942,105.732499" id="Path-2" transform="translate(715.739975, 126.298980) rotate(-12.000000) translate(-715.739975, -126.298980) "></path>
                    <path d="M752.239329,194.129849 C775.26901,136.941425 794.959319,93.8870271 811.310256,64.9666552" id="Path-2" transform="translate(781.774793, 129.548252) rotate(18.000000) translate(-781.774793, -129.548252) "></path>
                    <path d="M785.04885,224.009688 C791.76845,209.910539 806.650581,188.38334 829.695243,159.428091" id="Path-2" transform="translate(807.372046, 191.718890) rotate(15.000000) translate(-807.372046, -191.718890) "></path>
                    <path d="M792.079423,277.550604 C819.662606,244.289399 847.24579,212.717444 874.828974,182.834739" id="Path-2" transform="translate(833.454198, 230.192672) rotate(15.000000) translate(-833.454198, -230.192672) "></path>
                    <path d="M785.045008,322.033322 C796.261592,310.91676 812.058237,297.205773 832.434942,280.900361" id="Path-2" transform="translate(808.739975, 301.466842) rotate(10.000000) translate(-808.739975, -301.466842) "></path>
                    <path d="M783.047072,375.756194 C825.238645,348.429161 856.522784,326.61294 876.899489,310.307528" id="Path-2" transform="translate(829.973281, 343.031861) rotate(11.000000) translate(-829.973281, -343.031861) "></path>
                    <path d="M776.224367,415.998892 C791.756804,406.733367 809.845522,397.467843 830.49052,388.202318" id="Path-2" transform="translate(803.357444, 402.100605) rotate(11.000000) translate(-803.357444, -402.100605) "></path>
                    <path d="M768.316241,458.55944 C810.061112,441.137981 845.805464,427.955308 875.549298,419.011422" id="Path-2" transform="translate(821.932769, 438.785431) rotate(9.000000) translate(-821.932769, -438.785431) "></path>
                    <path d="M811.607632,522.79943 C814.890437,522.388104 831.209686,523.318511 860.565379,525.59065" id="Path-2" transform="translate(836.086505, 524.147754) rotate(-4.000000) translate(-836.086505, -524.147754) "></path>
                    <path d="M784.566511,482.019232 C793.947486,482.970664 807.089793,484.970922 823.993433,488.020006" id="Path-2" transform="translate(804.279972, 485.019619) rotate(-13.000000) translate(-804.279972, -485.019619) "></path>
                    <path d="M59.0466519,523.997097 C66.114277,524.234767 71.0071104,524.448635 73.7251521,524.638699" id="Path-2" transform="translate(66.385902, 524.497097) scale(-1, 1) rotate(-4.000000) translate(-66.385902, -524.497097) "></path>
                    <path d="M13.7639404,473.608008 C41.1969051,476.337691 69.5912339,478.838603 98.9469267,481.110742" id="Path-2" transform="translate(56.355434, 477.359375) scale(-1, 1) rotate(-13.000000) translate(-56.355434, -477.359375) "></path>
                    <path d="M695.310256,654.661015 C708.740765,656.982708 725.822785,661.612887 746.556317,668.551552" id="Path-2"></path>
                    <path d="M679.436774,687.541569 C712.715412,700.251471 743.214077,712.961373 770.932769,725.671275" id="Path-2"></path>
                    <path d="M659.808791,739.858135 C670.084564,735.958897 687.589531,731.07822 712.32369,725.216103" id="Path-2" transform="translate(686.066241, 732.537119) rotate(48.000000) translate(-686.066241, -732.537119) "></path>
                    <path d="M627.033658,782.167451 C662.970613,774.473609 696.112802,769.912616 726.460225,768.484471" id="Path-2" transform="translate(676.746941, 775.325961) rotate(48.000000) translate(-676.746941, -775.325961) "></path>
                    <path d="M608.80258,792.2116 C621.254447,791.399662 640.112521,790.459991 665.376802,789.392586" id="Path-2" transform="translate(637.089691, 790.802093) rotate(48.000000) translate(-637.089691, -790.802093) "></path>
                    <path d="M567.185143,826.230925 C597.089004,826.636983 629.243697,829.587984 663.649222,835.083927" id="Path-2" transform="translate(615.417182, 830.657426) rotate(48.000000) translate(-615.417182, -830.657426) "></path>
                    <path d="M539.002347,830.518062 C556.797427,833.395586 574.592508,837.068893 592.387588,841.537983" id="Path-2" transform="translate(565.694968, 836.028023) rotate(48.000000) translate(-565.694968, -836.028023) "></path>
                    <path d="M485.135915,883.345927 C521.07287,875.652085 554.215059,871.091091 584.562482,869.662946" id="Path-2" transform="translate(534.849199, 876.504436) rotate(77.000000) translate(-534.849199, -876.504436) "></path>
                    <path d="M461.366769,876.004436 C477.965586,876.040296 496.757384,876.349434 517.742165,876.931852" id="Path-2" transform="translate(489.554467, 876.504436) rotate(77.000000) translate(-489.554467, -876.504436) "></path>
                    <path d="M400.729773,903.566429 C432.954114,906.733369 466.269047,911.064811 500.674572,916.560754" id="Path-2" transform="translate(450.702173, 910.063592) rotate(77.000000) translate(-450.702173, -910.063592) "></path>
                    <path d="M376.668868,867.825585 C393.14979,871.695458 410.287791,875.864939 428.082872,880.334029" id="Path-2" transform="translate(402.375870, 874.079807) rotate(77.000000) translate(-402.375870, -874.079807) "></path>
                    <path d="M310.984292,870.377842 C347.436663,873.426402 379.116952,875.274367 406.025159,875.921737" id="Path-2" transform="translate(358.504725, 873.149790) scale(-1, 1) rotate(77.000000) translate(-358.504725, -873.149790) "></path>
                    <path d="M295.860316,828.788604 C312.956871,826.602012 331.997538,825.799926 352.982319,826.382343" id="Path-2" transform="translate(324.421317, 827.493597) scale(-1, 1) rotate(77.000000) translate(-324.421317, -827.493597) "></path>
                    <path d="M230.823493,831.110376 C267.348443,822.89728 300.516898,817.068082 330.328859,813.622783" id="Path-2" transform="translate(280.576176, 822.366580) scale(-1, 1) rotate(77.000000) translate(-280.576176, -822.366580) "></path>
                    <path d="M239.007168,776.880068 C258.50429,769.021552 273.934749,762.987091 285.298545,758.776684" id="Path-2" transform="translate(262.152856, 767.828376) scale(-1, 1) rotate(77.000000) translate(-262.152856, -767.828376) "></path>
                    <path d="M175.57136,747.818057 C212.023731,750.866617 243.70402,752.714582 270.612227,753.361952" id="Path-2" transform="translate(223.091793, 750.590004) scale(-1, 1) rotate(45.000000) translate(-223.091793, -750.590004) "></path>
                    <path d="M180.480557,711.610342 C199.521225,710.747005 218.561892,709.944918 237.60256,709.204082" id="Path-2" transform="translate(209.041559, 710.407212) scale(-1, 1) rotate(45.000000) translate(-209.041559, -710.407212) "></path>
                    <path d="M127.507584,695.818191 C165.59933,689.394507 199.551183,684.46004 229.363144,681.01479" id="Path-2" transform="translate(178.435364, 688.416491) scale(-1, 1) rotate(45.000000) translate(-178.435364, -688.416491) "></path>
                    <path d="M155.393019,653.397846 C176.851989,647.854492 193.263373,642.977612 204.627169,638.767206" id="Path-2" transform="translate(180.010094, 646.082526) scale(-1, 1) rotate(45.000000) translate(-180.010094, -646.082526) "></path>
                    <path d="M72.8403772,430.842181 C88.1396642,432.835125 110.106249,433.961184 138.740132,434.220356" id="Path-2" transform="translate(105.790254, 432.531269) scale(-1, 1) rotate(-12.000000) translate(-105.790254, -432.531269) "></path>
                    <path d="M-0.542442525,373.088734 C60.785576,371.460883 106.355566,368.924332 136.167527,365.479082" id="Path-2" transform="translate(67.812542, 369.283908) scale(-1, 1) rotate(-12.000000) translate(-67.812542, -369.283908) "></path>
                    <path d="M61.7109854,331.060047 C76.3928666,328.005525 99.8456527,324.560081 132.069344,320.723717" id="Path-2" transform="translate(96.890165, 325.891882) scale(-1, 1) rotate(-14.000000) translate(-96.890165, -325.891882) "></path>
                    <path d="M27.5631229,280.094808 C68.7970528,263.644575 105.889527,251.483532 138.840545,243.611678" id="Path-2" transform="translate(83.201834, 261.853243) scale(-1, 1) rotate(-15.000000) translate(-83.201834, -261.853243) "></path>
                    <path d="M68.7914537,232.362161 C85.2411082,223.232736 107.536661,213.360523 135.678113,202.745524" id="Path-2" transform="translate(102.234783, 217.553843) scale(-1, 1) rotate(-16.000000) translate(-102.234783, -217.553843) "></path>
                </g>
                <g id="Shield" transform="translate(200.503851, 184.445312)">
                    <g>
                        <path d="M562.485221,278.067921 C582.618135,179.714972 581.07139,89.1042113 572.926775,44.1732872 C549.114313,44.1732872 528.196345,41.8574219 522.82979,10.2402405 C397.948305,-3.41341351 237.248102,-2.74674684 40.7291795,12.2402405 C37.9410135,36.195605 24.9627335,48.1732872 1.79433958,48.1732872 C-2.90080454,128.676134 1.71864339,203.111061 14.4730327,270.363356 M57.1630305,410.835196 C106.785975,523.875521 186.236617,603.822657 285.646158,641.351083 C402.472607,601.949507 475.115388,514.180781 518.83778,416.439081"></path>
                    </g>
                    <g id="Light" transform="translate(289.121334, 501.577417) rotate(7.000000) translate(-289.121334, -501.577417) translate(209.121334, 403.577417)">
                        <path d="M90.1575644,195.056949 C66.7376553,195.056949 34.9166642,191.870083 10.9828331,137.699603 C-4.97305424,101.58595 -3.44541117,68.0850107 15.5657623,37.1967855 C14.508163,68.0850107 19.3293753,83.5291233 30.0293993,83.5291233" id="Path-48"></path>
                        <g id="Peak" transform="translate(28.299974, 51.662048)">
                            <path d="M7.17642028,56.7626538 C19.7995862,49.6410159 34.3471212,6.42673227 49.3303764,4.56639562 C39.8062238,10.3048697 27.2535757,54.2414196 48.857856,62.4878959" id="Path-49" transform="translate(28.253398, 33.527146) rotate(-15.000000) translate(-28.253398, -33.527146) "></path>
                            <path d="M23.3205674,114.470179 C25.8497537,98.5702851 31.2788373,88.9037516 39.6078184,85.4705783 C37.0566022,86.5110273 34.7313662,108.366784 48.3985536,111.390989" id="Path-49" transform="translate(35.859561, 99.970379) scale(-1, 1) rotate(7.000000) translate(-35.859561, -99.970379) "></path>
                            <path d="M69.2869108,82.8607674 C81.9112656,69.6265703 88.044784,54.552622 87.6874659,37.6389225 C91.4748835,49.4288592 99.6064943,58.8703819 100.166549,87.5149054" id="Path-49" transform="translate(84.726730, 62.576914) rotate(-7.000000) translate(-84.726730, -62.576914) "></path>
                        </g>
                        <path d="M150.235401,192.710656 C91.6174633,169.432875 93.4621229,111.76875 103.187672,75.9321356 C107.152931,61.3209866 114.52866,26.9328035 159.933652,21.2952721 C151.036521,26.6559543 135.323864,65.6932316 159.933652,75.9321356" id="Path-49" transform="translate(128.956832, 107.002964) scale(-1, 1) translate(-128.956832, -107.002964) "></path>
                        <path d="M34.8647793,69.7511852 C29.1456368,53.284839 31.3685705,41.8379941 41.5335803,35.4106506 C58.4141863,24.7370304 62.3642595,12.9410943 53.3837998,0.0228424402 C74.1948442,10.7131118 84.6003664,21.3364511 84.6003664,31.8928601 C84.6003664,45.2649997 88.6515082,54.2876879 96.9756756,58.4874165" id="Path-53"></path>
                    </g>
                    <g id="Heart" transform="translate(65.085548, 50.388576)">
                        <path d="M81.2514202,36.6844638 C87.1367255,36.6844638 111.629234,0.128320381 149.110312,0.128320381 C178.387957,0.128320381 180.50339,21.4954136 180.50339,42.5539547 C180.50339,63.6124958 155.479931,167.663993 98.1312388,167.663993 C40.7825469,167.663993 0.234150606,97.1706085 0.234150606,52.2013142 C0.234150606,7.23202001 21.6324343,7.23202001 28.6304647,7.23202001 C58.7272572,7.23202001 72.0524542,36.6844638 81.2514202,36.6844638 Z" id="Path"></path>
                        <path d="M62.2387853,80.4862687 C73.4646418,80.0078038 98.4233569,87.7742716 120.680905,86.8256175 C131.906761,86.3471526 137.818629,80.3887549 137.638241,74.0839773 C137.495774,69.1045647 127.236116,69.113007 125.156817,69.2016302 C93.2347068,70.5622042 72.8685805,99.13497 58.8689386,99.7316582 C49.8860344,100.114525 46.5515902,97.6995214 46.383862,91.8372056 C46.2083531,85.7029475 55.1559242,80.7881521 62.2387853,80.4862687 Z" id="Path-34" transform="translate(92.011785, 84.476208) rotate(-177.000000) translate(-92.011785, -84.476208) "></path>
                    </g>
                    <g id="Book" transform="translate(408.633102, 129.237983) rotate(1.000000) translate(-408.633102, -129.237983) translate(309.633102, 51.237983)">
                        <path d="M0.237157978,13.8707241 C40.1918543,-2.52921139 73.0534176,-4.38046227 98.8218479,8.31697146 C126.655,-4.38046227 159.293997,-2.52921139 196.738838,13.8707241 C193.350141,56.7501333 193.607418,103.952979 197.510672,155.47926 C166.846501,151.101524 148.657551,127.210522 100.075688,150.396489 C52.3472519,131.637916 16.7254747,155.47926 2.6407048,155.47926 C2.6407048,122.079605 1.83952253,74.8767594 0.237157978,13.8707241 Z" id="Path-45"></path>
                        <path d="M98.8903899,20.2368888 C98.0449673,26.6882328 97.622256,40.0007357 97.622256,60.1743975" id="Path-46"></path>
                        <path d="M97.7510559,74.988837 C96.9056333,78.6290824 96.482922,92.5129214 96.482922,116.640354" id="Path-46" transform="translate(97.116989, 95.814596) scale(1, -1) translate(-97.116989, -95.814596) "></path>
                        <path d="M149.411411,1.04637092 C142.398324,16.2901345 143.275558,36.3603379 152.043114,61.2569811" id="Path-46" transform="translate(148.389744, 31.151676) scale(1, -1) rotate(-90.000000) translate(-148.389744, -31.151676) "></path>
                        <path d="M149.516126,41.3256274 C142.503039,56.5693909 143.380273,76.6395943 152.147828,101.536237" id="Path-46" transform="translate(148.494458, 71.430932) scale(1, -1) rotate(-90.000000) translate(-148.494458, -71.430932) "></path>
                        <path d="M51.0304458,63.3221075 C44.0173588,78.5658711 44.8945929,98.6360745 53.6621481,123.532718" id="Path-46" transform="translate(50.008779, 93.427413) scale(-1, -1) rotate(-90.000000) translate(-50.008779, -93.427413) "></path>
                        <path d="M50.8559218,94.4598349 C43.8428347,109.703598 44.7200688,129.773802 53.4876241,154.670445" id="Path-46" transform="translate(49.834254, 124.565140) scale(-1, -1) rotate(-90.000000) translate(-49.834254, -124.565140) "></path>
                        <path d="M99.4550495,132.263335 C98.8428293,134.435063 98.5367193,136.866998 98.5367193,139.559141" id="Path-46" transform="translate(99.036719, 135.911238) scale(1, -1) translate(-99.036719, -135.911238) "></path>
                    </g>
                </g>
                <g id="Banner" transform="translate(0.000000, 423.875000)">
                    <g id="Group-3" transform="translate(0.000000, 0.713163)">
                        <path d="M148.89331,212.754138 C156.161423,226.979417 145.928543,238.737037 118.194671,248.026997 C87.1640657,258.421258 51.757004,263.002493 11.9734857,261.770701 C28.4802423,233.470167 36.7336206,210.897344 36.7336206,194.052233 C23.3531785,182.565655 11.1109354,164.111426 0.00689121482,138.689546 C40.1137614,141.484084 74.9614862,137.215949 104.550066,125.885143" id="Path-43"></path>
                        <path d="M954.214456,212.754138 C961.482569,226.979417 951.249689,238.737037 923.515817,248.026997 C892.485212,258.421258 857.07815,263.002493 817.294632,261.770701 C833.801388,233.470167 842.054767,210.897344 842.054767,194.052233 C828.674324,182.565655 816.432081,164.111426 805.328037,138.689546 C845.434907,141.484084 880.282632,137.215949 909.871212,125.885143" id="Path-43" transform="translate(880.903157, 193.925804) scale(-1, 1) translate(-880.903157, -193.925804) "></path>
                        <path d="M472.132812,0.806368065 C711.265625,0.806368065 822.054688,61.5563681 838.917969,70.8454306 C855.78125,80.1344931 850.3125,193.372774 830.132812,218.896212 C755.59375,184.775118 637.160156,144.474337 479.813482,144.474337 C322.466807,144.474337 158.425781,190.587618 125.890625,218.896212 C113.347656,168.247774 104.984375,147.255587 115.4375,70.8454306 C132.070313,65.7751181 233,0.806368065 472.132812,0.806368065 Z" id="Path-3"></path>
                    </g>
                    <g id="Exist" transform="translate(287.209231, 99.982851) rotate(-2.000000) translate(-287.209231, -99.982851) translate(174.709231, 23.482851)">
                        <g id="E" transform="translate(16.091370, 93.645108) rotate(2.000000) translate(-16.091370, -93.645108) translate(2.091370, 35.145108)">
                            <path d="M5.33269034,10.6667101 C5.93935459,57.8450727 7.98354935,92.7979947 11.4652746,115.525476" id="Path-21"></path>
                            <path d="M6.77186744,116.096009 C12.9245786,116.937151 19.683798,114.787534 27.0495256,109.647159" id="Path-22"></path>
                            <path d="M-0.248129242,7.19814407 C6.96764781,4.79407142 14.1528589,4.15698822 21.3075042,5.28689447" id="Path-23" transform="translate(10.529687, 5.971574) rotate(-22.000000) translate(-10.529687, -5.971574) "></path>
                            <path d="M8.72998985,74.9154621 C12.7096659,74.7910436 17.2302512,72.6012079 22.291746,68.3459551" id="Path-24" transform="translate(15.510868, 71.630709) rotate(20.000000) translate(-15.510868, -71.630709) "></path>
                        </g>
                        <g id="X" transform="translate(68.224660, 76.938731) rotate(-3.000000) translate(-68.224660, -76.938731) translate(50.224660, 17.938731)">
                            <path d="M8.69698214,12.9157996 C8.61096126,14.9627022 16.4265078,93.2608719 30.5065834,116.02909" id="Path-25"></path>
                            <path d="M0.423610288,117.145983 C0.423610288,117.145983 19.8467885,15.1485893 35.9616428,0.494106393" id="Path-26"></path>
                        </g>
                        <g id="I" transform="translate(120.790160, 65.862064) rotate(4.000000) translate(-120.790160, -65.862064) translate(109.290160, 6.362064)">
                            <path d="M1.06388054,3.22820765 C7.01953531,6.65386705 12.4199231,8.63535616 17.265044,9.17267498" id="Path-10" transform="translate(9.164462, 6.200441) scale(-1, -1) rotate(-19.000000) translate(-9.164462, -6.200441) "></path>
                            <path d="M8.93470018,12.9606329 C8.9948203,54.2200774 10.597496,87.9107907 13.7427273,114.032773" id="Path-11"></path>
                            <path d="M6.3579356,118.093355 C12.6793935,118.762712 18.138199,116.42938 22.734352,111.093356" id="Path-12"></path>
                        </g>
                        <g id="S" transform="translate(166.997191, 62.447558) rotate(2.000000) translate(-166.997191, -62.447558) translate(132.997191, 4.447558)">
                            <path d="M54.2080221,24.8520421 C54.2080221,16.6485274 51.9832377,4.16953909 44.207632,4.16953909 C37.9833768,4.16953909 33.7377823,9.76159786 33.7377823,19.594844 C33.7377823,34.627002 38.5699675,41.5160443 38.5699675,68.1393542 C38.5699675,81.4800658 36.4275605,111.898671 23.6219287,111.898671 C20.3583409,111.898671 14.0417172,105.691596 14.0417172,91.0182771" id="Path-10" transform="translate(34.124870, 58.034105) rotate(-15.000000) translate(-34.124870, -58.034105) "></path>
                        </g>
                        <g id="T" transform="translate(207.913300, 55.852790) rotate(5.000000) translate(-207.913300, -55.852790) translate(196.413300, 1.352790)">
                            <path d="M0.238304984,5.68584334 C5.64936333,3.70027201 13.1732928,2.40670051 22.8100934,1.80512887" id="Path-19" transform="translate(11.524199, 3.745486) rotate(7.000000) translate(-11.524199, -3.745486) "></path>
                            <path d="M11.1188553,7.53503856 C9.4552828,44.7342531 11.0586355,78.3867095 15.9289134,108.492408" id="Path-20"></path>
                        </g>
                    </g>
                    <g id="Infinite" transform="translate(617.624962, 94.639361) rotate(4.000000) translate(-617.624962, -94.639361) translate(428.124962, 15.639361)">
                        <g id="I" transform="translate(20.574992, 67.386295) rotate(3.000000) translate(-20.574992, -67.386295) translate(3.074992, 12.386295)">
                            <path d="M11.6360433,5.23291687 C11.6360433,5.23291687 11.2274373,36.3949864 24.0127497,101.54939" id="Path-2"></path>
                            <path d="M14.6729069,107.081521 C21.2091017,103.227338 27.6829921,100.509425 34.094578,98.9277814" id="Path-4" transform="translate(24.383742, 103.004651) rotate(16.000000) translate(-24.383742, -103.004651) "></path>
                            <path d="M1.24319453,9.81782253 C7.10463457,5.96546608 13.2342834,3.3285025 19.632141,1.90693179" id="Path-4" transform="translate(10.437668, 5.862377) rotate(10.000000) translate(-10.437668, -5.862377) "></path>
                        </g>
                        <g id="N" transform="translate(75.283064, 62.987095) rotate(-5.000000) translate(-75.283064, -62.987095) translate(58.783064, 10.987095)">
                            <path d="M2.75255428,0.813781941 C-0.5930443,36.6152915 -0.867656579,69.7969342 1.92871745,100.35871" id="Path-5"></path>
                            <path d="M3.0963461,0.880839898 C7.72495074,35.1788647 21.2892735,84.1028143 23.7593606,100.133967 C26.2294478,116.16512 27.4245141,63.8886361 32.790058,1.33645453" id="Path-6"></path>
                        </g>
                        <g id="F" transform="translate(126.013801, 59.523477) rotate(2.000000) translate(-126.013801, -59.523477) translate(115.013801, 0.523477)">
                            <path d="M6.69913198,11.3306409 C5.73352997,52.7754819 7.63914416,88.1918583 12.4159746,117.57977" id="Path-7"></path>
                            <path d="M1.81074271,13.7223558 C7.94391445,8.46259092 14.0770862,5.05865288 20.2102579,3.51054167" id="Path-8" transform="translate(11.010500, 8.616449) rotate(24.000000) translate(-11.010500, -8.616449) "></path>
                            <path d="M8.72003138,60.7410412 C12.4518859,61.9852157 16.1998381,63.2203961 19.9638878,64.4465822" id="Path-9" transform="translate(14.341960, 62.593812) rotate(-35.000000) translate(-14.341960, -62.593812) "></path>
                        </g>
                        <g id="I" transform="translate(171.042609, 65.439607) rotate(1.000000) translate(-171.042609, -65.439607) translate(161.042609, 10.939607)">
                            <path d="M1.0614721,2.76183774 C6.12659152,5.91380817 10.7194718,7.73698858 14.8401129,8.23137896" id="Path-10" transform="translate(7.950792, 5.496608) scale(-1, -1) rotate(-19.000000) translate(-7.950792, -5.496608) "></path>
                            <path d="M7.7553862,11.7167025 C7.80651669,49.679773 9.16954798,80.6788069 11.8444801,104.713804" id="Path-11"></path>
                            <path d="M5.5639193,108.449971 C10.9401441,109.065851 15.582707,106.918937 19.4916078,102.009229" id="Path-12"></path>
                        </g>
                        <g id="N" transform="translate(219.490850, 70.866286) rotate(5.000000) translate(-219.490850, -70.866286) translate(198.990850, 15.366286)">
                            <path d="M5.17179653,8.3720822 C6.19005554,44.0565408 9.49125918,76.8571974 15.0754074,106.774052" id="Path-13"></path>
                            <path d="M4.12287961,10.206782 C8.72474488,31.3573189 19.6188561,64.5092267 36.8052132,109.662505" id="Path-14" transform="translate(20.464046, 59.934644) rotate(4.000000) translate(-20.464046, -59.934644) "></path>
                            <path d="M35.869767,110.747106 C33.1406222,93.9325859 29.93493,57.0784012 26.2526904,0.18455189" id="Path-15"></path>
                        </g>
                        <g id="I" transform="translate(270.167280, 78.974483) rotate(5.000000) translate(-270.167280, -78.974483) translate(258.167280, 20.474483)">
                            <path d="M2.50778825,14.6024864 C5.64313664,10.2269629 10.0167428,6.52585852 15.6286068,3.49917314" id="Path-16" transform="translate(9.068198, 9.050830) rotate(40.000000) translate(-9.068198, -9.050830) "></path>
                            <path d="M9.77590931,8.25135385 C9.0150607,50.3134107 11.2572865,85.4611977 16.5025866,113.694715" id="Path-17"></path>
                            <path d="M10.3032678,116.16167 C15.1463556,113.826243 19.5959057,112.56843 23.6519182,112.388231" id="Path-18"></path>
                        </g>
                        <g id="T" transform="translate(311.935089, 89.257095) rotate(5.000000) translate(-311.935089, -89.257095) translate(299.435089, 32.757095)">
                            <path d="M0.375175375,5.55741435 C6.21198764,3.41216779 14.3279164,2.01457016 24.7229616,1.36462147" id="Path-19" transform="translate(12.549068, 3.461018) rotate(-6.000000) translate(-12.549068, -3.461018) "></path>
                            <path d="M11.9312819,3.60369007 C10.1368159,43.7943826 11.8663239,80.1530945 17.1198059,112.679826" id="Path-20"></path>
                        </g>
                        <g id="E" transform="translate(358.890479, 94.360078) rotate(5.000000) translate(-358.890479, -94.360078) translate(344.890479, 31.860078)">
                            <path d="M8.28343995,20.2179419 C8.64830439,65.7949116 9.87773889,99.5614135 11.9717435,121.517447" id="Path-21"></path>
                            <path d="M7.17745808,123.995841 C13.4779255,125.325565 20.3994663,121.927329 27.9420806,113.801133" id="Path-22"></path>
                            <path d="M3.84436005,21.600205 C11.3776455,13.6594816 17.5399893,7.82925339 22.3313913,4.10952042" id="Path-23" transform="translate(13.087876, 12.854863) rotate(37.000000) translate(-13.087876, -12.854863) "></path>
                            <path d="M12.8397929,74.4979995 C15.2332786,74.3778042 17.952082,72.2622989 20.996203,68.1514837" id="Path-24" transform="translate(16.917998, 71.324742) rotate(20.000000) translate(-16.917998, -71.324742) "></path>
                        </g>
                    </g>
                </g>
            </g>
        </g>
    </g>
</svg>